<?xml version="1.0" standalone="no"?>
<!DOCTYPE svg PUBLIC "-//W3C//DTD SVG 20010904//EN"
 "http://www.w3.org/TR/2001/REC-SVG-20010904/DTD/svg10.dtd">
<svg version="1.0" xmlns="http://www.w3.org/2000/svg"
 width="316.000000pt" height="316.000000pt" viewBox="0 0 316.000000 316.000000"
 preserveAspectRatio="xMidYMid meet">

<g transform="translate(0.000000,316.000000) scale(0.100000,-0.100000)"
fill="#000000" stroke="none">
<path d="M1270 3125 c18 -19 32 -36 29 -38 -2 -2 -26 -9 -54 -16 -27 -7 -81
-33 -120 -58 -164 -109 -246 -143 -340 -143 -40 0 -55 -4 -55 -14 0 -17 64
-59 115 -76 22 -7 44 -16 49 -21 5 -4 -16 -31 -48 -60 -42 -38 -67 -73 -96
-134 -41 -84 -45 -96 -32 -94 20 3 32 -2 32 -15 0 -21 -19 -30 -34 -17 -11 9
-26 -11 -75 -104 -34 -63 -61 -117 -61 -120 0 -13 23 -1 81 45 35 27 67 50 72
50 26 1 -41 -190 -98 -273 -25 -38 -30 -53 -20 -55 16 -4 88 31 133 66 18 14
35 22 38 20 5 -5 -19 -156 -33 -207 -7 -26 -4 -25 49 11 38 27 44 23 46 -29 4
-66 45 -146 98 -190 24 -21 44 -40 44 -44 0 -4 -28 -23 -62 -42 -80 -45 -123
-79 -189 -151 -39 -43 -49 -60 -40 -69 8 -8 11 -8 11 1 0 7 12 25 26 40 l27
27 -22 -32 c-12 -18 -19 -33 -14 -33 4 0 0 -5 -10 -11 -9 -6 -15 -14 -12 -20
3 -5 0 -6 -7 -4 -13 5 -94 -99 -127 -162 -19 -36 1 -63 47 -63 20 0 32 -4 26
-8 -16 -10 -28 -66 -13 -56 8 4 9 3 5 -4 -4 -7 -17 -17 -29 -24 -19 -10 -20
-9 -10 4 11 12 9 17 -13 27 -14 6 -30 8 -36 5 -5 -4 -3 5 6 18 15 24 13 58 -4
58 -4 0 -12 -10 -18 -22 -6 -13 -11 -18 -11 -11 -1 14 66 131 86 151 7 7 13
16 13 20 0 4 18 26 39 50 21 23 35 45 30 47 -8 6 -83 -91 -142 -183 -64 -98
-127 -314 -127 -431 0 -40 -7 -56 -44 -107 -94 -127 -224 -388 -270 -542 l-23
-77 610 -3 c554 -2 612 -1 628 14 17 15 19 15 25 0 5 -14 32 -16 237 -16 199
0 233 2 249 16 16 16 18 16 24 0 5 -14 26 -16 146 -16 135 0 139 1 133 20 -4
12 -2 20 5 20 6 0 8 -5 5 -10 -3 -6 3 -10 14 -10 12 0 21 -4 21 -10 0 -6 154
-10 439 -9 l439 0 -14 62 c-20 90 -62 222 -89 284 -28 62 -125 216 -162 255
-14 15 -32 49 -39 75 -7 27 -13 38 -13 25 -1 -19 -5 -22 -23 -16 -48 14 -50
19 -25 46 22 24 23 29 12 62 -7 20 -9 33 -5 31 5 -3 3 8 -3 24 -7 19 -16 27
-26 24 -13 -4 -13 -3 -2 5 16 11 6 32 -15 32 -8 0 -12 -5 -9 -10 3 -6 -1 -10
-10 -10 -14 0 -16 6 -10 27 3 16 13 31 20 36 12 6 11 13 -1 45 -8 20 -21 49
-30 65 -8 15 -12 27 -9 27 3 0 0 6 -7 13 -7 8 -20 12 -30 9 -10 -2 -18 1 -18
7 0 7 4 10 9 6 5 -3 12 -1 15 3 7 11 -52 102 -66 102 -5 0 -6 5 -3 10 3 6 2
10 -3 10 -5 0 -9 7 -9 15 0 18 9 19 26 3 32 -31 -13 37 -68 100 -56 65 -136
130 -147 120 -3 -3 10 -15 29 -27 18 -11 41 -29 51 -40 17 -19 17 -20 -6 -32
-13 -6 -20 -8 -16 -4 11 11 -12 36 -26 28 -6 -3 -8 -3 -4 2 9 9 -9 35 -23 35
-5 0 -9 -8 -9 -17 0 -10 -9 1 -20 25 -11 24 -24 41 -29 38 -5 -4 -12 -2 -16 4
-4 7 -12 7 -26 0 -20 -11 -26 -1 -10 16 6 5 4 14 -5 22 -8 7 -14 8 -14 2 0 -5
-4 -10 -10 -10 -5 0 -7 7 -4 15 4 9 -4 23 -17 35 -41 34 -9 22 43 -16 27 -20
51 -34 55 -31 3 3 -16 21 -42 39 -26 18 -55 38 -63 44 -14 10 -14 14 -3 28 13
15 11 16 -11 7 -21 -8 -68 -5 -68 4 0 1 5 16 11 34 9 24 17 31 37 31 69 1 156
84 178 172 l14 53 -5 -52 c-7 -62 -41 -146 -57 -137 -7 5 -8 2 -3 -5 4 -7 -3
-23 -16 -39 l-24 -27 29 25 c60 53 96 140 96 234 0 25 4 47 9 51 6 3 25 -4 43
-15 18 -11 40 -20 50 -20 15 0 14 4 -2 49 -24 61 -52 182 -45 189 3 3 21 -10
40 -28 19 -18 38 -30 42 -27 11 12 -15 144 -42 212 -30 74 -31 90 -7 80 23 -9
112 -19 112 -13 0 3 -40 44 -89 92 -49 48 -101 110 -116 137 -24 44 -25 54
-15 79 10 24 16 27 33 21 12 -5 33 -4 47 1 24 9 24 10 6 24 -11 8 -24 14 -29
14 -35 0 -237 111 -237 130 0 6 24 21 54 34 77 34 79 46 8 46 -57 0 -61 1 -80
34 -26 44 -78 83 -125 91 -20 4 -41 15 -47 24 -8 14 -12 14 -32 2 -13 -8 -42
-18 -66 -21 -39 -6 -43 -5 -39 11 5 18 -7 19 -276 19 l-281 0 34 -35z m127
-332 c-9 -47 12 -295 31 -363 l18 -64 -23 -48 c-18 -37 -28 -48 -47 -48 -50 0
-120 36 -195 100 -23 20 -23 23 -11 63 18 59 101 223 139 277 17 25 42 60 54
77 27 40 41 42 34 6z m472 -196 c28 -38 61 -87 72 -109 l20 -40 -36 -34 c-20
-19 -42 -31 -48 -27 -7 3 -9 3 -5 -2 5 -5 -1 -15 -13 -23 -11 -8 -24 -10 -28
-6 -10 11 -38 137 -51 229 -5 39 -12 85 -16 103 l-5 33 29 -28 c16 -15 52 -59
81 -96z m-329 82 c0 -9 110 -176 142 -217 13 -15 47 -51 77 -79 l54 -53 -66
-30 c-91 -41 -128 -38 -169 14 -15 18 -18 18 -18 4 0 -9 5 -20 10 -23 16 -10
11 -28 -6 -21 -9 4 -13 2 -8 -5 4 -7 1 -10 -7 -7 -8 2 -15 18 -17 34 -6 48
-22 53 -22 6 0 -32 5 -44 22 -53 16 -9 23 -9 26 0 5 15 22 14 22 -1 1 -14 64
-58 84 -58 6 0 41 27 76 60 36 32 76 65 90 72 14 7 31 19 38 26 7 6 16 12 20
12 4 0 23 14 42 31 42 37 48 32 74 -70 10 -39 22 -71 26 -71 12 0 20 39 20 95
l0 49 18 -24 c23 -34 29 -274 9 -413 -14 -101 -10 -124 17 -85 23 33 21 3 -5
-74 -34 -99 -77 -173 -125 -218 -125 -115 -352 -220 -475 -220 -43 0 -180 55
-239 97 -25 17 -62 48 -83 68 l-39 37 44 20 c57 26 166 68 177 68 5 0 4 -13
-1 -28 -26 -69 28 -120 107 -102 32 7 61 28 51 37 -2 2 -20 -4 -41 -13 -44
-18 -80 -12 -96 17 -16 31 -3 67 32 88 l31 19 -40 27 c-50 33 -70 76 -52 110
7 13 20 25 30 28 24 6 76 -17 88 -40 6 -10 13 -15 17 -11 10 10 -16 45 -42 57
-13 6 -39 11 -58 11 -66 0 -85 -81 -33 -137 12 -13 20 -24 17 -26 -2 -2 -40
-13 -84 -26 -43 -12 -97 -31 -120 -41 -32 -15 -43 -16 -53 -6 -20 20 -71 153
-92 241 -24 100 -37 239 -19 211 18 -29 29 -2 29 72 0 91 26 207 63 282 l32
65 6 -72 c5 -75 14 -98 25 -69 8 21 14 20 48 -9 16 -14 32 -25 35 -25 12 0
118 -109 113 -115 -4 -3 0 -4 8 -1 8 3 22 2 30 -3 12 -8 12 -17 1 -63 -27
-107 -50 -147 -97 -168 -52 -24 -114 -26 -155 -4 -41 21 -48 11 -11 -15 39
-27 105 -28 157 -1 39 20 39 20 60 0 22 -21 94 -54 102 -47 2 3 -3 21 -11 42
-14 33 -14 39 1 68 17 32 19 74 12 209 -3 40 -8 64 -14 60 -5 -3 -5 1 2 9 18
23 35 98 39 179 2 41 12 107 21 145 10 39 16 74 15 78 -1 5 3 5 9 1 9 -5 10
-2 5 11 -5 15 -4 16 9 5 8 -7 15 -16 15 -21z m705 -709 c-27 -12 -43 -12 -25
0 8 5 22 9 30 9 10 0 8 -3 -5 -9z m-1330 -49 c-26 -5 -30 -11 -33 -44 -5 -64
24 -132 71 -167 22 -16 46 -30 52 -30 6 0 22 -11 35 -25 13 -14 19 -25 14 -25
-5 0 -2 -5 6 -10 35 -23 -14 -8 -59 18 -106 61 -165 179 -131 266 8 21 16 26
42 25 l33 -1 -30 -7z m55 -26 c7 -9 11 -17 8 -20 -2 -2 -12 4 -21 15 -9 11
-13 20 -8 20 5 0 14 -7 21 -15z m1173 -70 c-5 -13 -23 -22 -23 -11 0 15 14 35
21 31 4 -3 6 -12 2 -20z m-13 -29 c0 -3 -4 -8 -10 -11 -5 -3 -10 -1 -10 4 0 6
5 11 10 11 6 0 10 -2 10 -4z m0 -222 c0 -6 -33 -34 -40 -34 -4 0 -6 8 -3 18 2
10 13 18 24 18 10 0 19 -1 19 -2z m-122 -50 c1 -16 -1 -24 -5 -18 -4 6 -16 14
-27 17 -15 6 -16 10 -6 22 18 22 35 13 38 -21z m147 -40 c-27 -14 -52 14 -27
32 11 8 19 7 31 -5 15 -15 15 -17 -4 -27z m-200 16 c3 -6 -1 -7 -9 -4 -18 7
-21 14 -7 14 6 0 13 -4 16 -10z m-35 -25 c0 -8 -2 -15 -4 -15 -2 0 -6 7 -10
15 -3 8 -1 15 4 15 6 0 10 -7 10 -15z m100 5 c0 -5 -5 -10 -11 -10 -5 0 -7 5
-4 10 3 6 8 10 11 10 2 0 4 -4 4 -10z m120 -35 c-13 -14 -26 -22 -29 -19 -3 3
5 14 18 25 33 27 39 24 11 -6z m-1330 0 c-7 -8 -17 -15 -22 -15 -6 0 -5 7 2
15 7 8 17 15 22 15 6 0 5 -7 -2 -15z m310 5 c0 -5 -5 -10 -11 -10 -5 0 -7 5
-4 10 3 6 8 10 11 10 2 0 4 -4 4 -10z m833 -2 c-6 -7 -9 -20 -8 -28 2 -10 -6
-15 -20 -15 -13 0 -21 3 -19 6 2 3 -9 12 -24 19 -18 8 -22 14 -13 18 7 2 17
-2 22 -9 7 -11 9 -11 9 -1 0 7 3 11 8 9 4 -3 16 -1 27 4 28 11 29 11 18 -3z
m57 -38 c0 -5 -8 -10 -17 -10 -15 0 -16 2 -3 10 19 12 20 12 20 0z m-1070 -4
c0 -2 -7 -7 -16 -10 -8 -3 -12 -2 -9 4 6 10 25 14 25 6z m1220 0 c0 -3 -4 -8
-10 -11 -5 -3 -10 -1 -10 4 0 6 5 11 10 11 6 0 10 -2 10 -4z m-1270 -21 c0 -8
8 -15 18 -15 16 0 19 -8 18 -44 -1 -29 -5 -41 -10 -35 -14 13 -49 12 -40 -3 5
-7 3 -8 -6 -3 -7 4 -16 2 -21 -6 -7 -10 -8 -6 -4 11 3 14 7 36 9 50 3 33 16
60 27 60 5 0 9 -7 9 -15z m1100 -11 c0 -8 -19 -13 -24 -6 -3 5 1 9 9 9 8 0 15
-2 15 -3z m300 -19 c0 -8 -4 -17 -10 -20 -6 -3 -9 4 -8 19 2 25 18 26 18 1z
m170 -15 c29 -37 30 -40 11 -40 -12 0 -21 -4 -21 -9 0 -5 -7 -11 -14 -14 -10
-4 -13 -1 -9 9 3 7 9 14 14 14 5 0 9 6 9 14 0 16 -26 40 -32 29 -3 -4 -4 -3
-2 3 1 6 -3 17 -9 23 -8 8 -7 11 5 11 9 0 31 -18 48 -40z m-1650 -15 c0 -18
-4 -23 -15 -19 -25 10 -19 33 13 43 1 1 2 -10 2 -24z m454 17 c3 -5 -1 -9 -9
-9 -8 0 -15 4 -15 9 0 4 4 8 9 8 6 0 12 -4 15 -8z m-77 -49 c0 -9 -4 -10 -14
-2 -7 6 -13 12 -13 14 0 1 6 2 13 2 8 0 14 -6 14 -14z m890 -25 c1 -13 4 -32
5 -43 2 -12 -3 -20 -12 -20 -9 0 -15 13 -18 38 -2 23 1 37 8 37 6 0 8 6 4 13
-4 6 -3 9 1 5 5 -5 10 -18 12 -30z m113 22 c0 -5 -4 -10 -10 -10 -5 0 -10 5
-10 10 0 6 5 10 10 10 6 0 10 -4 10 -10z m-290 -10 c0 -5 -4 -10 -9 -10 -6 0
-13 5 -16 10 -3 6 1 10 9 10 9 0 16 -4 16 -10z m383 3 c-7 -2 -13 -14 -13 -26
-1 -21 -1 -21 -11 -3 -11 19 2 37 26 35 6 0 4 -3 -2 -6z m84 1 c-3 -3 -12 -4
-19 -1 -8 3 -5 6 6 6 11 1 17 -2 13 -5z m-357 -23 c0 -6 -4 -13 -10 -16 -5 -3
-10 1 -10 9 0 9 5 16 10 16 6 0 10 -4 10 -9z m210 -11 c6 -11 7 -20 2 -20 -6
0 -12 9 -15 20 -3 11 -3 20 -1 20 2 0 8 -9 14 -20z m-992 -17 c26 5 27 3 28
-33 0 -35 -1 -38 -21 -30 -11 4 -28 4 -37 -1 -15 -8 -16 -5 -8 21 5 19 5 28
-1 25 -5 -4 -9 -13 -9 -21 0 -8 -4 -14 -10 -14 -15 0 -12 16 5 30 12 10 13 16
3 29 -12 14 -11 14 5 2 10 -8 28 -11 45 -8z m810 -7 c-4 -17 0 -26 12 -29 9
-2 20 -14 23 -27 l6 -22 -24 22 c-15 14 -31 21 -45 17 -11 -3 -20 -1 -20 4 0
5 5 9 10 9 14 0 12 18 -2 23 -7 2 -3 2 10 0 15 -2 22 2 22 12 0 8 3 15 6 15 4
0 4 -11 2 -24z m-1265 3 c-6 -6 -9 -19 -6 -28 5 -13 3 -14 -7 -4 -11 10 -11
15 0 28 7 8 15 15 18 15 3 0 1 -5 -5 -11z m1337 1 c0 -5 -2 -10 -4 -10 -3 0
-8 5 -11 10 -3 6 -1 10 4 10 6 0 11 -4 11 -10z m90 6 c0 -3 -4 -8 -10 -11 -5
-3 -10 -1 -10 4 0 6 5 11 10 11 6 0 10 -2 10 -4z m-1236 -27 c-3 -5 -15 -9
-27 -8 -12 0 -16 3 -9 6 6 2 10 8 7 13 -3 4 4 6 15 3 11 -3 17 -9 14 -14z
m1416 11 c0 -5 -7 -10 -15 -10 -8 0 -15 5 -15 10 0 6 7 10 15 10 8 0 15 -4 15
-10z m-1706 -19 c3 -5 -2 -15 -12 -22 -15 -12 -16 -12 -5 2 7 9 10 19 6 22 -3
4 -4 7 0 7 3 0 8 -4 11 -9z m1720 -19 c2 -4 -4 -9 -15 -9 -11 -1 -17 2 -14 8
7 11 22 12 29 1z m131 -2 c3 -5 -1 -10 -9 -10 -9 0 -16 5 -16 10 0 6 4 10 9
10 6 0 13 -4 16 -10z m-1405 -26 c15 -1 19 3 15 14 -4 12 -3 12 9 3 11 -9 11
-17 2 -36 -13 -30 -46 -34 -46 -6 0 11 -4 23 -10 26 -5 3 -10 12 -10 18 0 7 4
6 10 -3 5 -8 19 -16 30 -16z m717 -52 c7 -43 18 -96 26 -118 12 -37 12 -46 -9
-100 l-21 -59 -105 -30 c-148 -43 -245 -41 -382 6 -87 30 -101 38 -109 62 -5
15 -5 35 -1 45 9 20 11 28 13 43 0 5 5 8 10 5 4 -3 8 7 8 22 0 15 7 55 15 90
l14 63 33 -30 c18 -16 50 -38 70 -48 51 -25 151 -22 222 8 67 28 189 100 189
111 0 4 4 8 8 8 4 0 13 -35 19 -78z m278 58 c3 -5 1 -10 -4 -10 -6 0 -11 5
-11 10 0 6 2 10 4 10 3 0 8 -4 11 -10z m-1040 -10 c3 -5 1 -10 -4 -10 -6 0
-11 5 -11 10 0 6 2 10 4 10 3 0 8 -4 11 -10z m835 -14 c0 -3 -4 -8 -10 -11 -5
-3 -10 -1 -10 4 0 6 5 11 10 11 6 0 10 -2 10 -4z m230 -6 c0 -5 -5 -10 -11
-10 -5 0 -7 5 -4 10 3 6 8 10 11 10 2 0 4 -4 4 -10z m367 -22 c-3 -8 -6 -5 -6
6 -1 11 2 17 5 13 3 -3 4 -12 1 -19z m-1465 -30 c-8 -8 -9 -4 -5 13 4 13 8 18
11 10 2 -7 -1 -18 -6 -23z m1193 11 c-6 -16 -4 -20 6 -13 12 7 12 5 0 -9 -16
-20 -46 -8 -53 21 -4 14 1 18 24 20 26 2 29 0 23 -19z m-1232 -3 c9 3 17 1 17
-4 0 -18 -20 -24 -35 -12 -12 10 -16 9 -22 -6 -7 -20 -22 -34 -36 -34 -5 0 -5
5 -2 10 4 6 2 16 -4 23 -7 10 -3 13 17 15 15 1 29 7 31 13 2 8 5 8 11 0 3 -7
14 -9 23 -5z m218 -9 c-10 -9 -11 -8 -5 6 3 10 9 15 12 12 3 -3 0 -11 -7 -18z
m1269 12 c0 -15 -18 -19 -23 -6 -3 8 1 14 9 14 8 0 14 -4 14 -8z m47 -11 c-3
-8 -6 -5 -6 6 -1 11 2 17 5 13 3 -3 4 -12 1 -19z m49 -25 c-10 -10 -19 5 -10
18 6 11 8 11 12 0 2 -7 1 -15 -2 -18z m-536 -3 c-6 -11 -12 -20 -14 -20 -2 0
-2 9 1 20 3 11 9 20 15 20 5 0 4 -9 -2 -20z m-1535 -11 c-4 -13 -3 -19 2 -16
5 4 10 0 10 -8 0 -8 -8 -17 -18 -20 -12 -4 -22 -24 -30 -60 -7 -30 -16 -55
-20 -55 -7 0 10 66 37 138 16 43 31 60 19 21z m265 -4 c8 0 27 3 42 6 l26 7
-14 -34 c-8 -19 -12 -39 -9 -43 3 -5 -2 -12 -11 -15 -8 -3 -12 -2 -9 4 3 6 1
10 -4 10 -6 0 -11 -4 -11 -10 0 -5 -6 -7 -14 -4 -12 5 -12 9 0 32 17 33 18 43
2 41 -25 -3 -38 1 -38 12 0 6 5 7 13 2 6 -4 19 -8 27 -8z m240 -6 c0 -5 -4 -9
-8 -9 -5 0 -9 7 -9 15 0 8 4 12 9 9 4 -3 8 -9 8 -15z m1548 -4 c-3 -3 -9 2
-12 12 -6 14 -5 15 5 6 7 -7 10 -15 7 -18z m-483 5 c3 -5 1 -10 -4 -10 -6 0
-11 5 -11 10 0 6 2 10 4 10 3 0 8 -4 11 -10z m315 6 c0 -11 -19 -15 -25 -6 -3
5 1 10 9 10 9 0 16 -2 16 -4z m191 -39 c-1 -12 -15 -9 -19 4 -3 6 1 10 8 8 6
-3 11 -8 11 -12z m-1744 -19 c2 -17 0 -19 -7 -8 -5 8 -6 18 -4 22 8 12 10 10
11 -14z m1093 2 c0 -5 -5 -10 -11 -10 -5 0 -7 5 -4 10 3 6 8 10 11 10 2 0 4
-4 4 -10z m-1280 -30 c0 -11 -2 -20 -4 -20 -2 0 -6 9 -9 20 -3 11 -1 20 4 20
5 0 9 -9 9 -20z m1627 -5 c0 -8 -4 -12 -9 -9 -4 3 -8 9 -8 15 0 5 4 9 8 9 5 0
9 -7 9 -15z m-1387 -5 c-8 -5 -19 -10 -25 -10 -5 0 -3 5 5 10 8 5 20 10 25 10
6 0 3 -5 -5 -10z m290 6 c0 -3 -4 -8 -10 -11 -5 -3 -10 -1 -10 4 0 6 5 11 10
11 6 0 10 -2 10 -4z m-395 -15 c-3 -5 -1 -12 5 -16 5 -3 10 -12 10 -18 0 -7
-4 -6 -10 3 -5 8 -10 11 -10 7 0 -5 -5 -5 -10 -2 -8 5 -7 11 1 21 13 16 23 19
14 5z m1208 -6 c-3 -9 -8 -14 -10 -11 -3 3 -2 9 2 15 9 16 15 13 8 -4z m237 5
c0 -5 -4 -10 -10 -10 -5 0 -10 5 -10 10 0 6 5 10 10 10 6 0 10 -4 10 -10z
m288 -25 c-3 -3 -9 2 -12 12 -6 14 -5 15 5 6 7 -7 10 -15 7 -18z m-1494 -6
c66 -26 70 -37 5 -13 -24 8 -59 13 -76 10 -32 -5 -46 7 -20 17 22 9 34 7 91
-14z m1164 16 c-3 -3 -14 -7 -24 -9 -11 -2 -31 -7 -46 -11 -39 -10 -35 2 5 14
36 10 73 14 65 6z m136 -27 c-3 -4 -12 -8 -20 -8 -8 0 -13 4 -10 8 3 5 12 9
20 9 8 0 13 -4 10 -9z m-259 -8 c-27 -12 -43 -12 -25 0 8 5 22 9 30 9 10 0 8
-3 -5 -9z m375 -20 c0 -4 -6 -10 -14 -13 -10 -4 -14 0 -13 12 1 18 27 18 27 1z
m-1820 -4 c0 -3 -4 -8 -10 -11 -5 -3 -10 -1 -10 4 0 6 5 11 10 11 6 0 10 -2
10 -4z m30 -17 c0 -6 -4 -7 -10 -4 -5 3 -10 11 -10 16 0 6 5 7 10 4 6 -3 10
-11 10 -16z m2010 5 c0 -8 -19 -13 -24 -6 -3 5 1 9 9 9 8 0 15 -2 15 -3z
m-730 -14 c-8 -5 -19 -10 -25 -10 -5 0 -3 5 5 10 8 5 20 10 25 10 6 0 3 -5 -5
-10z m-1465 -18 c-3 -3 -11 0 -18 7 -9 10 -8 11 6 5 10 -3 15 -9 12 -12z m775
-2 c8 -5 11 -10 5 -10 -5 0 -17 5 -25 10 -8 5 -10 10 -5 10 6 0 17 -5 25 -10z
m575 -19 c-44 -15 -98 -31 -120 -34 -25 -4 -13 3 35 18 41 13 86 28 100 33 14
6 34 10 45 10 11 0 -16 -12 -60 -27z m325 9 c0 -13 -5 -18 -15 -14 -16 7 -19
17 -8 27 12 13 23 7 23 -13z m488 0 c7 -11 11 -20 9 -20 -2 0 -12 9 -22 20
-10 11 -14 20 -9 20 5 0 15 -9 22 -20z m-1328 -10 c18 -12 2 -12 -25 0 -13 6
-15 9 -5 9 8 0 22 -4 30 -9z m-860 -15 c0 -8 -4 -15 -10 -15 -5 0 -7 7 -4 15
4 8 8 15 10 15 2 0 4 -7 4 -15z m729 1 c7 -8 8 -17 3 -20 -6 -3 -12 3 -15 14
-6 24 -4 25 12 6z m1061 10 c0 -11 -19 -15 -25 -6 -3 5 1 10 9 10 9 0 16 -2
16 -4z m443 -11 c-3 -9 -8 -14 -10 -11 -3 3 -2 9 2 15 9 16 15 13 8 -4z
m-1240 -22 c37 -9 67 -20 67 -24 0 -7 -172 39 -180 48 -3 3 6 3 20 -1 14 -3
55 -14 93 -23z m355 -4 c-2 -6 -7 -10 -12 -9 -5 1 -12 -2 -15 -7 -12 -18 -114
-54 -125 -43 -5 5 -6 13 -2 17 4 4 11 1 16 -7 8 -13 10 -12 10 3 0 10 4 16 9
13 5 -4 11 -3 13 2 2 6 82 37 106 41 2 1 2 -4 0 -10z m-438 -24 c7 -4 31 -9
54 -11 22 -2 46 -11 52 -19 9 -13 13 -13 17 -3 3 7 6 8 6 2 1 -5 -5 -19 -13
-30 -14 -18 -15 -18 -34 6 -14 18 -41 31 -91 44 -39 10 -73 22 -76 26 -6 9 67
-4 85 -15z m197 -7 c-3 -7 -5 -2 -5 12 0 14 2 19 5 13 2 -7 2 -19 0 -25z m875
0 c-7 -7 -12 -8 -12 -2 0 14 12 26 19 19 2 -3 -1 -11 -7 -17z m-1723 -35 c10
-8 11 -12 4 -13 -7 0 -10 -7 -7 -14 5 -13 2 -13 -20 -3 -20 10 -22 13 -9 18
15 5 15 6 1 11 -9 4 -20 2 -26 -4 -8 -8 -9 -5 -5 10 3 12 10 19 19 15 9 -3 14
2 15 13 1 17 2 17 6 -1 3 -11 13 -25 22 -32z m421 37 c0 -5 -4 -10 -10 -10 -5
0 -10 5 -10 10 0 6 5 10 10 10 6 0 10 -4 10 -10z m-210 -4 c0 -2 -7 -7 -16
-10 -8 -3 -12 -2 -9 4 6 10 25 14 25 6z m1670 -26 c0 -5 -4 -10 -10 -10 -5 0
-10 5 -10 10 0 6 5 10 10 10 6 0 10 -4 10 -10z m-1228 -15 c20 -4 46 -16 58
-27 24 -22 24 -35 -4 -133 -7 -27 -12 -53 -9 -57 9 -15 54 -8 59 10 4 9 21 55
38 102 33 87 49 102 93 86 14 -6 14 -8 -1 -24 -9 -10 -16 -22 -16 -25 0 -12
28 -7 32 5 3 7 19 -16 36 -52 26 -54 28 -66 16 -73 -8 -5 -12 -12 -9 -18 7
-11 -55 -149 -67 -149 -4 0 -8 -9 -8 -21 0 -11 -4 -18 -9 -14 -6 3 -8 -4 -6
-15 2 -11 0 -20 -4 -20 -8 0 -24 -37 -22 -52 0 -3 -6 -12 -15 -18 -12 -11 -13
-10 -7 5 5 14 3 17 -10 12 -9 -3 -17 -2 -17 4 0 6 -5 7 -11 3 -8 -4 -9 0 -4
15 4 14 3 21 -5 19 -7 -2 -15 3 -18 11 -3 8 0 11 7 7 7 -5 9 -1 5 8 -3 9 -9
14 -13 11 -4 -2 -15 12 -25 31 -14 30 -14 39 -4 52 8 9 8 13 2 9 -17 -10 -29
9 -59 88 -14 39 -34 88 -45 110 -11 22 -22 60 -26 84 -6 39 -5 43 12 38 10 -3
35 -9 56 -12z m393 5 c7 -12 -36 -109 -49 -110 -4 0 -6 7 -2 15 3 8 1 15 -4
15 -5 0 -12 11 -16 25 -3 14 -11 25 -18 26 -10 0 61 37 76 38 4 1 10 -4 13 -9z
m-535 -35 c0 -31 -36 -23 -42 9 -4 19 -1 22 19 18 16 -3 23 -11 23 -27z m605
15 c3 -5 1 -10 -4 -10 -6 0 -11 5 -11 10 0 6 2 10 4 10 3 0 8 -4 11 -10z
m-1212 -17 c-7 -2 -19 -2 -25 0 -7 3 -2 5 12 5 14 0 19 -2 13 -5z m67 3 c0 -3
-4 -8 -10 -11 -5 -3 -10 -1 -10 4 0 6 5 11 10 11 6 0 10 -2 10 -4z m1039 -165
c1 -9 -2 -11 -7 -5 -11 11 -72 161 -71 171 1 12 78 -150 78 -166z m-1151 142
c18 -4 20 -8 10 -14 -17 -12 -31 -11 -23 0 3 5 -3 12 -12 14 -10 3 -13 5 -8 6
6 0 21 -2 33 -6z m900 -78 c-23 -77 -25 -81 -35 -72 -3 4 6 38 22 77 16 39 30
69 31 67 2 -1 -6 -34 -18 -72z m-955 40 c-3 -9 -8 -14 -10 -11 -3 3 -2 9 2 15
9 16 15 13 8 -4z m28 -22 c-12 -20 -14 -14 -5 12 4 9 9 14 11 11 3 -2 0 -13
-6 -23z m1819 1 c0 -2 -9 0 -20 6 -23 13 -26 3 -6 -26 14 -19 12 -20 -20 -21
-19 -1 -34 3 -34 8 0 5 -10 9 -22 10 -16 0 -18 2 -8 6 8 4 20 12 25 19 13 17
46 22 68 12 9 -5 17 -11 17 -14z m-480 -13 c3 -2 -3 -1 -12 2 -9 3 -19 1 -22
-6 -2 -7 -5 -1 -5 12 -1 23 5 22 39 -8z m-770 5 c0 -2 -8 -10 -17 -17 -16 -13
-17 -12 -4 4 13 16 21 21 21 13z m-128 -18 c-9 -9 -15 -9 -24 0 -9 9 -7 12 12
12 19 0 21 -3 12 -12z m970 -20 c-8 -8 -9 -4 -5 13 4 13 8 18 11 10 2 -7 -1
-18 -6 -23z m685 0 c-3 -8 -6 -5 -6 6 -1 11 2 17 5 13 3 -3 4 -12 1 -19z
m-412 -19 c11 -16 2 -17 -25 -2 -24 12 -24 13 -3 13 12 0 25 -5 28 -11z m-95
-20 c0 -18 -2 -19 -15 -9 -15 12 -12 30 6 30 5 0 9 -10 9 -21z m-830 7 c0 -3
-4 -8 -10 -11 -5 -3 -10 -1 -10 4 0 6 5 11 10 11 6 0 10 -2 10 -4z m1540 -6
c0 -5 -4 -10 -10 -10 -5 0 -10 5 -10 10 0 6 5 10 10 10 6 0 10 -4 10 -10z
m-855 -19 c-3 -5 7 -11 22 -13 23 -2 29 -9 33 -38 6 -33 4 -35 -22 -35 -15 -1
-28 3 -28 8 0 4 -4 5 -10 2 -5 -3 -11 1 -11 9 -1 9 -2 22 -3 29 -3 13 12 47
20 47 3 0 3 -4 -1 -9z m395 -1 c0 -5 -2 -10 -4 -10 -3 0 -8 5 -11 10 -3 6 -1
10 4 10 6 0 11 -4 11 -10z m-1050 -15 c0 -8 -4 -15 -10 -15 -5 0 -10 7 -10 15
0 8 5 15 10 15 6 0 10 -7 10 -15z m994 7 c3 -5 -1 -9 -9 -9 -8 0 -15 4 -15 9
0 4 4 8 9 8 6 0 12 -4 15 -8z m-224 -6 c0 -3 -4 -8 -10 -11 -5 -3 -10 -1 -10
4 0 6 5 11 10 11 6 0 10 -2 10 -4z m420 -32 c0 -21 -27 -17 -33 5 -3 14 0 17
14 14 11 -3 19 -12 19 -19z m-636 -2 c2 -4 1 -14 -4 -22 -7 -11 -12 -11 -23
-2 -7 7 -17 9 -20 5 -4 -3 -7 -1 -7 5 0 9 14 16 42 21 4 0 9 -3 12 -7z m690
-7 c10 -7 15 -18 11 -24 -9 -16 -25 -13 -25 4 0 8 -4 15 -10 15 -5 0 -10 5
-10 10 0 14 11 12 34 -5z m-1684 -5 c0 -5 -5 -10 -11 -10 -5 0 -7 5 -4 10 3 6
8 10 11 10 2 0 4 -4 4 -10z m90 -10 c0 -5 -4 -10 -10 -10 -5 0 -10 5 -10 10 0
6 5 10 10 10 6 0 10 -4 10 -10z m1265 1 c3 -5 1 -12 -5 -16 -5 -3 -10 1 -10 9
0 18 6 21 15 7z m-1520 -11 c-3 -5 -14 -10 -23 -9 -14 0 -13 2 3 9 27 11 27
11 20 0z m975 -14 c0 -2 -7 -9 -15 -16 -13 -11 -14 -10 -9 4 5 14 24 23 24 12z
m820 0 c0 -3 -4 -8 -10 -11 -5 -3 -10 -1 -10 4 0 6 5 11 10 11 6 0 10 -2 10
-4z m124 -11 c3 -8 1 -15 -3 -15 -5 0 -11 7 -15 15 -3 8 -1 15 3 15 5 0 11 -7
15 -15z m-1967 -17 c-3 -8 -6 -5 -6 6 -1 11 2 17 5 13 3 -3 4 -12 1 -19z
m1902 8 c9 -10 9 -16 1 -21 -17 -11 -40 3 -34 20 8 19 18 19 33 1z m-1349 -17
c0 -5 -4 -9 -10 -9 -5 0 -10 7 -10 16 0 8 5 12 10 9 6 -3 10 -10 10 -16z m80
11 c0 -5 -4 -10 -10 -10 -5 0 -10 5 -10 10 0 6 5 10 10 10 6 0 10 -4 10 -10z
m-250 -25 c0 -11 7 -14 24 -9 19 4 26 1 31 -16 8 -26 4 -31 -27 -34 -18 -2
-24 2 -26 18 0 11 -6 22 -12 24 -13 5 -13 32 0 32 6 0 10 -7 10 -15z m1541 -8
c-10 -9 -11 -8 -5 6 3 10 9 15 12 12 3 -3 0 -11 -7 -18z m249 8 c-7 -9 -15
-13 -17 -11 -7 7 7 26 19 26 6 0 6 -6 -2 -15z m-395 -8 c11 -9 14 -16 8 -20
-6 -4 -22 2 -34 13 -18 14 -20 19 -8 20 8 0 23 -6 34 -13z m219 -28 c-3 -5
-16 -9 -29 -9 -26 0 -29 25 -4 41 15 9 43 -17 33 -32z m-1288 -6 c-11 -11 -19
6 -11 24 8 17 8 17 12 0 3 -10 2 -21 -1 -24z m704 21 c0 -2 -7 -4 -15 -4 -8 0
-15 4 -15 10 0 5 7 7 15 4 8 -4 15 -8 15 -10z m-1350 -34 c0 -5 -4 -10 -10
-10 -5 0 -10 5 -10 10 0 6 5 10 10 10 6 0 10 -4 10 -10z m1455 0 c3 -5 1 -10
-4 -10 -6 0 -11 5 -11 10 0 6 2 10 4 10 3 0 8 -4 11 -10z m-381 -9 c3 -5 -2
-15 -12 -22 -15 -12 -16 -12 -5 2 7 9 10 19 6 22 -3 4 -4 7 0 7 3 0 8 -4 11
-9z m549 -17 c-3 -9 0 -20 8 -24 7 -5 11 -12 7 -15 -9 -9 -48 17 -48 32 0 6 8
14 18 16 9 3 18 5 19 6 1 0 0 -6 -4 -15z m-93 -14 c0 -5 -2 -10 -4 -10 -3 0
-8 5 -11 10 -3 6 -1 10 4 10 6 0 11 -4 11 -10z m-220 -51 c0 -5 -7 -6 -15 -3
-8 4 -15 13 -15 21 0 13 3 13 15 3 8 -7 15 -16 15 -21z m-1070 11 c0 -5 -5
-10 -11 -10 -5 0 -7 5 -4 10 3 6 8 10 11 10 2 0 4 -4 4 -10z m610 -16 c0 -8
-7 -14 -15 -14 -15 0 -21 21 -9 33 10 9 24 -2 24 -19z m1165 16 c3 -5 2 -10
-4 -10 -5 0 -13 5 -16 10 -3 6 -2 10 4 10 5 0 13 -4 16 -10z m-1661 -26 c6
-16 -9 -44 -25 -44 -12 0 -39 30 -39 44 0 19 57 19 64 0z m766 6 c0 -5 -2 -10
-4 -10 -3 0 -8 5 -11 10 -3 6 -1 10 4 10 6 0 11 -4 11 -10z m-500 -15 c-14
-17 -30 -20 -30 -6 0 5 8 12 18 14 9 3 19 5 21 6 2 0 -2 -6 -9 -14z m386 -25
c12 0 12 -4 4 -20 -7 -12 -16 -17 -27 -13 -9 4 -14 2 -10 -3 3 -5 -5 -14 -17
-20 -21 -10 -22 -8 -22 29 1 31 6 42 21 47 13 5 23 2 28 -6 4 -8 15 -14 23
-14z m934 -1 c0 -18 -2 -19 -15 -9 -8 7 -15 16 -15 21 0 5 7 9 15 9 9 0 15 -9
15 -21z m-295 -26 c2 -7 0 -13 -5 -13 -6 0 -10 -6 -10 -14 0 -22 -12 -26 -36
-13 -31 17 -16 56 20 53 14 0 28 -7 31 -13z m-1069 -31 c-4 -3 -12 0 -19 7 -9
9 -9 14 3 21 11 7 16 5 18 -6 2 -9 1 -18 -2 -22z m674 13 c0 -8 -7 -15 -15
-15 -8 0 -15 7 -15 15 0 8 7 15 15 15 8 0 15 -7 15 -15z m704 9 c21 -8 20 -30
-1 -38 -21 -8 -35 6 -27 27 7 19 7 19 28 11z m-839 -34 c3 -5 -1 -10 -9 -10
-9 0 -16 5 -16 10 0 6 4 10 9 10 6 0 13 -4 16 -10z m747 -14 c7 4 8 2 4 -5 -9
-13 -26 -5 -25 12 0 9 2 8 6 -1 2 -6 10 -9 15 -6z m-492 -22 c0 -2 -7 -4 -15
-4 -8 0 -15 4 -15 10 0 5 7 7 15 4 8 -4 15 -8 15 -10z m577 0 c-3 -3 -12 -4
-19 -1 -8 3 -5 6 6 6 11 1 17 -2 13 -5z"/>
<path d="M1740 2232 c-33 -26 -74 -96 -67 -115 2 -7 13 6 24 28 49 94 137 125
218 75 34 -21 65 -73 65 -108 0 -12 5 -24 10 -27 17 -11 11 44 -10 85 -31 60
-85 92 -153 89 -41 -2 -64 -9 -87 -27z"/>
<path d="M1160 2237 c-46 -16 -100 -87 -100 -133 0 -21 4 -33 10 -29 6 3 10
18 10 32 0 26 29 83 41 83 4 0 11 -9 14 -20 8 -25 50 -37 70 -20 20 17 19 57
-2 69 -15 9 -14 10 11 11 60 0 126 -64 126 -124 0 -14 5 -28 10 -31 6 -4 10 9
10 31 0 42 -40 110 -71 119 -11 4 -17 9 -15 13 7 12 -78 11 -114 -1z"/>
<path d="M1762 2208 c-27 -27 -10 -78 27 -78 32 0 51 16 51 45 0 12 -5 26 -12
33 -7 7 -21 12 -33 12 -12 0 -26 -5 -33 -12z"/>
<path d="M2057 2016 c-11 -8 -14 -17 -8 -20 5 -4 15 3 21 14 13 23 11 24 -13
6z"/>
<path d="M1720 1956 c32 -39 153 -46 205 -12 35 23 26 31 -11 11 -37 -19 -114
-19 -161 0 -44 19 -49 19 -33 1z"/>
<path d="M1950 1913 c0 -21 -12 -29 -59 -38 -16 -3 -21 1 -21 16 0 10 -4 19
-10 19 -5 0 -10 -10 -10 -21 0 -20 -4 -21 -45 -17 -25 3 -45 2 -45 -2 0 -9 36
-20 67 -20 12 0 26 -8 32 -17 9 -17 10 -17 16 -1 8 21 75 42 89 28 15 -15 29
-12 22 5 -3 9 1 18 9 21 21 8 19 26 -2 22 -10 -2 -23 3 -30 12 -11 13 -12 12
-13 -7z"/>
<path d="M1480 1910 c0 -5 5 -10 10 -10 6 0 10 5 10 10 0 6 -4 10 -10 10 -5 0
-10 -4 -10 -10z"/>
<path d="M1085 1730 c-3 -5 -1 -10 4 -10 6 0 11 5 11 10 0 6 -2 10 -4 10 -3 0
-8 -4 -11 -10z"/>
<path d="M1088 1703 c6 -2 18 -2 25 0 6 3 1 5 -13 5 -14 0 -19 -2 -12 -5z"/>
<path d="M2618 1097 c31 -63 59 -113 61 -111 6 5 -91 203 -106 215 -7 6 13
-41 45 -104z"/>
<path d="M2732 760 c0 -14 2 -19 5 -12 2 6 2 18 0 25 -3 6 -5 1 -5 -13z"/>
</g>
</svg>
